PathFileType	4	(x/y/z)	S04_PSF_T12.trc
DataRate	CameraRate	NumFrames	NumMarkers	Units	OrigDataRate	OrigDataStartFrame	OrigNumFrames
240	240	4	51	mm	240	1	426
Frame#	Time	Sternum			R.Acromium			L.Acromium			Top.Head			R.ASIS			L.ASIS			R.PSIS			L.PSIS			R.Great.Tro			L.Great.Tro			R.Iliac.Crest			L.Iliac.Crest			V.Sacral			R.Thigh.Upper.Post			R.Thigh.Lower.Ant			R.Thigh.Lower.Post			R.Thigh.Upper.Ant			R.Knee.Lat			R.Knee.Med			R.Shank.Upper.Post			R.Shank.Lower.Ant			R.Shank.Lower.Post			R.Shank.Upper.Ant			R.Ankle.Lat			R.Ankle.Med			R.Heel.Upper			R.Heel.Med			R.Heel.Lat			R.Toe.Lat			R.Toe.Med			R.Toe.Tip			L.Thigh.Upper.Post			L.Thigh.Lower.Ant			L.Thigh.Lower.Post			L.Thigh.Upper.Ant			L.Knee.Lat			L.Knee.Med			L.Shank.Upper.Post			L.Shank.Lower.Ant			L.Shank.Lower.Post			L.Shank.Upper.Ant			L.Ankle.Lat			L.Ankle.Med			L.Heel.Upper			L.Heel.Med			L.Heel.Lat			L.Toe.Lat			L.Toe.Med			L.Toe.Tip			Cervical.Spine			Back			
		X1	Y1	Z1	X2	Y2	Z2	X3	Y3	Z3	X4	Y4	Z4	X5	Y5	Z5	X6	Y6	Z6	X7	Y7	Z7	X8	Y8	Z8	X9	Y9	Z9	X10	Y10	Z10	X11	Y11	Z11	X12	Y12	Z12	X13	Y13	Z13	X14	Y14	Z14	X15	Y15	Z15	X16	Y16	Z16	X17	Y17	Z17	X18	Y18	Z18	X19	Y19	Z19	X20	Y20	Z20	X21	Y21	Z21	X22	Y22	Z22	X23	Y23	Z23	X24	Y24	Z24	X25	Y25	Z25	X26	Y26	Z26	X27	Y27	Z27	X28	Y28	Z28	X29	Y29	Z29	X30	Y30	Z30	X31	Y31	Z31	X32	Y32	Z32	X33	Y33	Z33	X34	Y34	Z34	X35	Y35	Z35	X36	Y36	Z36	X37	Y37	Z37	X38	Y38	Z38	X39	Y39	Z39	X40	Y40	Z40	X41	Y41	Z41	X42	Y42	Z42	X43	Y43	Z43	X44	Y44	Z44	X45	Y45	Z45	X46	Y46	Z46	X47	Y47	Z47	X48	Y48	Z48	X49	Y49	Z49	X50	Y50	Z50	X51	Y51	Z51	

1	0	NaN	NaN	NaN	-1608	1489.4	417.68	-1640.2	1473.4	69.741	-1602.3	1812	223.38	NaN	NaN	NaN	NaN	NaN	NaN	NaN	NaN	NaN	NaN	NaN	NaN	-1654.3	902.8	438.36	-1628.9	904.29	59.167	-1632.5	1071.9	420.67	-1631.6	1071.5	83.036	-1765.6	974.62	228.85	-1718.1	660.42	416.54	-1663.2	560.01	385.34	-1741.3	573.15	401.78	-1627.8	662.03	408.01	-1742.7	495.79	389.51	-1765.1	505.36	260.22	-1885.3	306.27	372.37	-1843.8	213.44	332.4	NaN	NaN	NaN	NaN	NaN	NaN	-1931.5	130.74	328.76	-1915.9	142.33	234.75	-2002.9	109.24	274.26	-1998.9	76.052	244.88	-2003.3	78.386	309.39	NaN	NaN	NaN	-1798.2	42.266	244.46	-1733.8	51.016	292.58	-1566.2	667.3	70.082	-1454.3	608.17	72.879	-1523.9	589.14	85.848	-1514.4	688.21	51.205	-1448.3	519.46	89.761	-1434.8	511.82	215.34	-1450.6	324.16	92.776	NaN	NaN	NaN	-1408.2	256.14	100.31	NaN	NaN	NaN	-1291.5	127.39	108.5	-1286.7	142.09	200.65	-1338.4	60.684	157.18	-1317.9	45.098	192.15	-1318.7	39.661	131	NaN	NaN	NaN	-1135.4	152.2	201.69	-1093.5	190.82	153.39	-1671.4	1535.7	252.15	-1761.4	1282.1	241.47
2	0.0041667	NaN	NaN	NaN	-1602.8	1488.8	417.1	-1635.5	1472.7	69.204	-1597.4	1811.5	222.76	NaN	NaN	NaN	NaN	NaN	NaN	NaN	NaN	NaN	NaN	NaN	NaN	-1649.1	902.24	437.97	-1623.2	903.89	58.772	-1626.8	1071.2	420.32	-1626.3	1071	82.672	-1760.2	974.14	228.35	-1713.1	659.98	416.28	-1657.7	559.65	384.62	-1736.8	572.88	401.46	-1622.8	661.5	407.91	-1738.7	495.56	389.4	-1760.2	504.89	260.1	-1882.2	307.03	372.46	-1841.3	214.06	331.99	NaN	NaN	NaN	NaN	NaN	NaN	-1929.5	131.65	329.22	-1913.7	143.34	235.95	-2001.9	111.25	274.47	-1998.2	78.114	245	-2002.6	80.371	309.51	-1852.5	52.683	361.86	-1798.1	42.326	244.52	-1733.4	50.898	292.5	-1560	667.09	69.915	-1448.2	608.16	73.251	-1518.1	589.04	85.686	-1506.6	687.6	51.899	-1442.4	519.19	89.899	-1429.3	511.52	215.36	-1446.1	323.57	92.85	NaN	NaN	NaN	-1404.8	255.4	100.32	-1383	340.16	82.934	-1289.2	125.69	108.76	-1284.6	140.38	200.88	-1336.8	59.813	157.28	-1316.6	44.074	192.26	-1317.6	38.642	131.11	NaN	NaN	NaN	-1133.2	149.31	201.89	-1091.1	187.63	153.53	-1666.5	1535.1	251.6	-1756.3	1281.4	241.12
3	0.0083333	NaN	NaN	NaN	-1597.3	1488.3	416.49	-1630.6	1472.1	68.637	-1592.3	1811	222.11	NaN	NaN	NaN	NaN	NaN	NaN	NaN	NaN	NaN	NaN	NaN	NaN	-1643.6	901.66	437.57	-1617.2	903.49	58.361	-1620.9	1070.5	419.95	-1620.8	1070.4	82.291	-1754.5	973.65	227.81	-1707.8	659.52	416	-1651.9	559.29	383.88	-1732.1	572.58	401.12	-1617.6	660.96	407.81	-1734.5	495.32	389.29	-1755	504.41	259.98	-1878.9	307.85	372.54	-1838.7	214.71	331.59	NaN	NaN	NaN	NaN	NaN	NaN	-1927.5	132.67	329.65	-1911.5	144.41	237.13	-2000.7	113.39	274.68	-1997.4	80.311	245.11	-2001.9	82.489	309.63	-1850	52.168	362.03	-1798	42.39	244.59	-1733	50.771	292.41	-1553.7	666.89	69.742	-1441.7	608.14	73.63	-1512	588.93	85.521	-1498.5	687	52.59	-1436.3	518.9	90.037	-1423.6	511.2	215.39	-1441.3	322.97	92.913	NaN	NaN	NaN	-1401.3	254.64	100.32	-1378.5	339.35	83.113	-1286.8	123.96	109.04	-1282.3	138.64	201.11	-1335.2	58.985	157.39	-1315.2	43.073	192.36	-1316.4	37.649	131.22	NaN	NaN	NaN	-1130.9	146.27	202.11	-1088.5	184.27	153.7	-1661.3	1534.5	251.02	-1751	1280.7	240.76
4	0.0125	NaN	NaN	NaN	-1591.7	1487.7	415.86	-1625.5	1471.4	68.044	-1587.1	1810.5	221.43	NaN	NaN	NaN	NaN	NaN	NaN	NaN	NaN	NaN	NaN	NaN	NaN	-1638	901.07	437.15	-1611	903.11	57.936	-1614.8	1069.9	419.57	-1615	1069.8	81.893	-1748.6	973.17	227.26	-1702.3	659.05	415.71	-1645.8	558.93	383.13	-1727	572.25	400.77	-1612.1	660.41	407.7	-1730	495.05	389.17	-1749.5	503.9	259.84	-1875.5	308.73	372.6	-1836	215.4	331.2	NaN	NaN	NaN	NaN	NaN	NaN	-1925.5	133.82	330.06	-1909.1	145.57	238.25	-1999.5	115.66	274.88	-1996.6	82.641	245.22	-2001.1	84.738	309.73	-1847.6	51.692	362.2	-1797.9	42.458	244.65	-1732.7	50.636	292.33	-1547.1	666.69	69.565	-1435.2	608.11	74.013	-1505.7	588.82	85.352	-1490.3	686.43	53.263	-1430	518.6	90.173	-1417.8	510.85	215.42	-1436.5	322.38	92.963	NaN	NaN	NaN	-1397.7	253.87	100.33	-1373.7	338.51	83.297	-1284.4	122.21	109.31	-1280	136.87	201.35	-1333.5	58.223	157.49	-1313.9	42.118	192.47	-1315.2	36.705	131.33	NaN	NaN	NaN	-1128.6	143.1	202.35	-1085.9	180.75	153.9	-1656	1533.9	250.41	-1745.4	1279.9	240.37
